<svg width="528" height="450" viewBox="0 0 528 450" fill="none" xmlns="http://www.w3.org/2000/svg">
<path d="M4.17201e-05 242.258C27.6628 302.306 98.4831 424.016 160.463 430.464C164.641 374.68 177.623 259.991 196.118 247.511C196.702 247.117 197.257 246.74 197.784 246.38C229.258 307.445 318.748 429.829 435.993 449.859C440.698 445.686 450.205 433.143 450.601 416.359C473.141 422.452 520.009 429.666 527.154 409.772C518.32 403.925 501.612 389.753 505.446 379.843C510.238 367.456 504.28 344.836 489.838 337.711C486.764 343.083 476.872 349.523 461.898 332.306C457.515 324.427 449.117 306.689 450.589 298.767C446.204 311.454 444.332 341.434 471.924 359.856C472.921 362.658 472.726 367.663 463.972 365.263C469.799 373.83 484.23 391.213 495.339 392.204C496.057 392.268 496.701 392.322 497.278 392.365C504.405 399.069 512.071 410.04 495.837 410.421C484.555 410.276 460.255 406.692 453.31 393.515C446.983 394.555 431.7 399.748 421.184 412.196C388.532 412.898 329.186 401.063 353.013 348.108L284.698 178.75C261.34 192.623 210.581 197.295 194.409 104.999C193.749 119.907 184.431 142.058 152.44 111.4C160.255 133.314 172.611 185.679 159.521 219.83C165.503 236.645 176.114 277.199 170.703 304.887C169.615 317.799 165.831 344.846 159.401 349.743C155.363 357.64 144.359 373.455 132.651 373.54C108.206 366.693 57.297 338.632 49.2241 281.162C39.133 209.325 57.4226 195.219 78.463 208.358C82.3792 190.282 82.926 148.308 53.7838 125.021C45.5666 108.373 32.969 68.506 48.3158 42.224C49.4086 40.3525 50.3766 38.6869 51.2295 37.2111C57.1486 32.5927 65.3823 33.3434 67.3714 60.8898C70.6825 44.1796 68.2546 8.60726 32.0541 -2.43495e-05L4.17201e-05 242.258Z" fill="#D43642"/>
</svg>
