<svg width="592" height="362" viewBox="0 0 592 362" fill="none" xmlns="http://www.w3.org/2000/svg">
<path d="M548.14 240.627C503.761 287.197 399.902 376.227 339.49 359.778C352.543 305.654 375.238 192.783 361.598 174.29C361.167 173.706 360.759 173.149 360.371 172.618C312.09 218.761 190.419 301.641 73.7542 277.91C70.5891 272.265 65.4439 256.981 70.1839 241.009C47.0716 238.562 0.677697 228.327 1.18953e-05 206.97C10.1112 204.667 30.1845 197.376 29.5878 186.638C28.8419 173.214 41.3508 154.05 57.1405 152.581C58.4031 158.764 65.7695 168.432 85.1345 157.639C91.6677 151.803 104.991 138.128 106.016 130.123C106.287 143.681 98.919 172.633 67.2875 179.975C65.4936 182.255 64.1527 187.046 73.1397 187.965C65.0351 193.926 46.1313 205.071 35.353 201.968C34.6571 201.768 34.0331 201.584 33.4759 201.416C24.7124 205.146 14.1416 212.706 29.3338 218.966C40.0172 222.93 64.0246 228.384 74.5879 218.482C80.2374 221.763 93.0674 232.215 99.1918 247.777C129.769 260.308 189.339 270.721 183.001 212.122L299.013 77.2484C316.813 98.8217 363.256 121.679 406.622 40.5215C402.703 54.8197 404.743 79.0955 444.249 61.8129C430.205 79.6375 402.601 124.527 404.542 161.49C393.779 175.173 371.419 209.558 368.087 237.635C365.18 250.206 360.509 277.087 365.08 284.043C366.483 292.957 372.042 311.871 383.057 316.207C408.195 318.637 464.751 310.681 489.87 259.421C521.269 195.346 508.319 175.395 484.475 180.137C486.288 161.668 498.559 121.886 533.134 110.52C545.954 97.8077 569.978 64.7924 563.512 34.4295C563.052 32.2674 562.646 30.3449 562.291 28.6431C558.116 22.1363 550.123 19.8513 539.856 45.1047C541.824 28.1432 554.95 -4.51929 591.709 0.523082L548.14 240.627Z" fill="#D43642"/>
</svg>
