<svg width="20" height="20" viewBox="0 0 20 20" fill="none" xmlns="http://www.w3.org/2000/svg">
<g clip-path="url(#clip0_2001_245)">
<path d="M14.5405 0.918721C12.7382 0.903561 10.9809 1.85206 9.99466 3.35023C9.00904 1.85264 7.2508 0.903521 5.45036 0.918721C4.04482 0.914853 2.72084 1.45988 1.7253 2.453C0.638053 3.53739 0.0114008 5.08698 0.00319547 6.70867C-0.16388 12.2832 6.26139 17.243 9.73088 19.0244C10.1526 19.2973 11.1385 18.518 11.706 18.219C13.9436 16.9256 17.183 14.0747 18.4595 11.7195C19.4817 9.98486 20 8.18606 20 6.37303C20 3.36551 17.5509 0.918721 14.5405 0.918721ZM17.4998 11.0384C15.5585 14.4435 11.6807 16.9723 10.0081 17.8422C8.08946 16.8727 3.99422 13.7785 2.55732 11.2006C1.64586 9.72494 1.18074 8.23447 1.17456 6.77017C1.16898 5.43794 1.67005 4.16209 2.55306 3.28295C3.33772 2.50012 4.33975 2.08774 5.44879 2.09091C7.18648 2.07032 8.83849 3.20597 9.44818 4.82742C9.63866 5.32279 10.3504 5.32326 10.5411 4.82742C12.9635 -0.751961 22.259 2.61035 17.4998 11.0384Z" fill="#D43642"/>
</g>
<defs>
<clipPath id="clip0_2001_245">
<rect width="20" height="20" fill="white"/>
</clipPath>
</defs>
</svg>
