<svg width="20" height="20" viewBox="0 0 20 20" fill="none" xmlns="http://www.w3.org/2000/svg">
<path d="M15.6243 8.12469C15.2793 8.12469 14.9993 7.84469 14.9993 7.49969C14.9993 4.94156 13.0071 2.75469 10.4634 2.52094C7.91371 2.28625 5.54777 4.07062 5.08277 6.58375C5.02715 6.88312 4.99902 7.19125 4.99902 7.49969C4.99902 7.84469 4.71902 8.12469 4.37402 8.12469C4.02902 8.12469 3.74902 7.84469 3.74902 7.49969C3.74902 7.115 3.78402 6.73031 3.8534 6.35625C4.43465 3.21469 7.38652 0.981561 10.5781 1.27594C13.7584 1.56844 16.2493 4.30219 16.2493 7.49969C16.2493 7.845 15.9696 8.12469 15.6243 8.12469Z" fill="#C74247"/>
<path d="M15.6243 15.6247C15.2793 15.6247 14.9993 15.3447 14.9993 14.9997C14.9993 14.6547 15.2793 14.3747 15.6243 14.3747C16.2393 14.3747 16.6193 13.9537 16.7696 13.5597C16.9193 13.1678 16.9161 12.6028 16.4577 12.1928C16.2005 11.9628 16.178 11.5675 16.4086 11.3103C16.6383 11.0531 17.034 11.0309 17.2908 11.2612C18.0583 11.9475 18.3121 13.025 17.9371 14.0056C17.5615 14.9891 16.6536 15.6247 15.6243 15.6247Z" fill="#C74247"/>
<path d="M15.6243 9.55719C15.2793 9.55719 14.9993 9.27719 14.9993 8.93219V7.5C14.9993 7.155 15.2793 6.875 15.6243 6.875C15.9693 6.875 16.2493 7.155 16.2493 7.5V8.93219C16.2493 9.27719 15.9696 9.55719 15.6243 9.55719Z" fill="#C74247"/>
<path d="M16.874 12.3522C16.7255 12.3522 16.5768 12.2997 16.4577 12.1931C15.5308 11.3641 14.9993 10.1756 14.9993 8.93219C14.9993 8.58719 15.2793 8.30719 15.6243 8.30719C15.9693 8.30719 16.2493 8.58719 16.2493 8.93219C16.2493 9.82031 16.629 10.6694 17.2908 11.2616C17.548 11.4916 17.5705 11.8869 17.3399 12.1441C17.2168 12.2819 17.0458 12.3522 16.874 12.3522Z" fill="#C74247"/>
<path d="M4.37427 9.55719C4.02927 9.55719 3.74927 9.27719 3.74927 8.93219V7.5C3.74927 7.155 4.02927 6.875 4.37427 6.875C4.71927 6.875 4.99927 7.155 4.99927 7.5V8.93219C4.99927 9.27719 4.71958 9.55719 4.37427 9.55719Z" fill="#C74247"/>
<path d="M3.12471 12.3522C2.95283 12.3522 2.78189 12.2819 2.65877 12.1437C2.42846 11.8866 2.45064 11.4912 2.70783 11.2612C3.36971 10.6691 3.74939 9.82031 3.74939 8.93187C3.74939 8.58687 4.02939 8.30687 4.37439 8.30687C4.71939 8.30687 4.99939 8.58687 4.99939 8.93187C4.99939 10.1753 4.46783 11.3637 3.54096 12.1928C3.42189 12.2997 3.27314 12.3522 3.12471 12.3522Z" fill="#C74247"/>
<path d="M9.99927 18.7497C7.96645 18.7497 6.24927 17.0325 6.24927 14.9997C6.24927 14.6547 6.52927 14.3747 6.87427 14.3747C7.21927 14.3747 7.49927 14.6547 7.49927 14.9997C7.49927 16.3547 8.64396 17.4997 9.99927 17.4997C11.3546 17.4997 12.4993 16.3547 12.4993 14.9997C12.4993 14.6547 12.7793 14.3747 13.1243 14.3747C13.4693 14.3747 13.7493 14.6547 13.7493 14.9997C13.7493 17.0325 12.0321 18.7497 9.99927 18.7497Z" fill="#C74247"/>
<path d="M4.37434 15.6247C3.34497 15.6247 2.43778 14.9906 2.06309 14.0094C1.68747 13.0263 1.94059 11.9475 2.70778 11.2616C2.96528 11.0316 3.36028 11.0534 3.59028 11.3109C3.82028 11.5684 3.79809 11.9631 3.54091 12.1934C3.08278 12.6031 3.08028 13.17 3.23059 13.5638C3.38028 13.9559 3.75966 14.3753 4.37434 14.3753C4.71934 14.3753 4.99934 14.6553 4.99934 15.0003C4.99934 15.3453 4.71966 15.6247 4.37434 15.6247Z" fill="#C74247"/>
<path d="M15.6843 15.5357H4.43433C4.08933 15.5357 3.80933 15.2557 3.80933 14.9107C3.80933 14.5657 4.08933 14.2857 4.43433 14.2857H15.6843C16.0293 14.2857 16.3093 14.5657 16.3093 14.9107C16.3093 15.2557 16.0296 15.5357 15.6843 15.5357Z" fill="#C74247"/>
</svg>
